STARTFONT 2.3
FONT -FontForge-Henny Penny-Book-R-Normal--9-90-72-72-P-51-ISO10646-1
SIZE 9 72 72  2
FONTBOUNDINGBOX 12 17 -1 -6
COMMENT "Generated by fontforge, http://fontforge.sourceforge.net"
COMMENT "Copyright (c) 2012, Brownfox (gayaneh.b@gmail.com), with Reserved Font Name "Henny Penny""
STARTPROPERTIES 40
FOUNDRY "FontForge"
FAMILY_NAME "Henny Penny"
WEIGHT_NAME "Book"
SLANT "R"
SETWIDTH_NAME "Normal"
ADD_STYLE_NAME ""
PIXEL_SIZE 9
POINT_SIZE 90
RESOLUTION_X 72
RESOLUTION_Y 72
SPACING "P"
AVERAGE_WIDTH 51
CHARSET_REGISTRY "ISO10646"
CHARSET_ENCODING "1"
FONTNAME_REGISTRY ""
CHARSET_COLLECTIONS "ISO10646-1"
BITS_PER_PIXEL 2
FONT_NAME "HennyPenny-Regular"
FACE_NAME "Henny Penny"
COPYRIGHT "Copyright (c) 2012, Brownfox (gayaneh.b@gmail.com), with Reserved Font Name "Henny Penny""
FONT_VERSION "1.001"
FONT_ASCENT 7
FONT_DESCENT 2
UNDERLINE_POSITION -1
UNDERLINE_THICKNESS 1
X_HEIGHT 5
CAP_HEIGHT 7
RAW_ASCENT 799
RAW_DESCENT 200
NORM_SPACE 2
RELATIVE_WEIGHT 40
RELATIVE_SETWIDTH 50
SUPERSCRIPT_X 0
SUPERSCRIPT_Y 3
SUPERSCRIPT_SIZE 5
SUBSCRIPT_X 0
SUBSCRIPT_Y 0
SUBSCRIPT_SIZE 5
AVG_LOWERCASE_WIDTH 47
AVG_UPPERCASE_WIDTH 65
ENDPROPERTIES
CHARS 233
STARTCHAR space
ENCODING 32
SWIDTH 270 0
DWIDTH 2 0
BBX 1 1 0 0
BITMAP
00
ENDCHAR
STARTCHAR exclam
ENCODING 33
SWIDTH 249 0
DWIDTH 2 0
BBX 2 9 0 0
BITMAP
60
60
60
60
20
10
00
00
50
ENDCHAR
STARTCHAR quotedbl
ENCODING 34
SWIDTH 292 0
DWIDTH 3 0
BBX 2 3 0 4
BITMAP
50
50
50
ENDCHAR
STARTCHAR numbersign
ENCODING 35
SWIDTH 1030 0
DWIDTH 9 0
BBX 7 10 1 -3
BITMAP
0100
0110
5594
0440
0550
6500
2400
5400
1000
1000
ENDCHAR
STARTCHAR dollar
ENCODING 36
SWIDTH 799 0
DWIDTH 7 0
BBX 5 10 1 -2
BITMAP
0100
1F80
2540
2D00
0E00
0740
4580
9680
6E00
1000
ENDCHAR
STARTCHAR percent
ENCODING 37
SWIDTH 789 0
DWIDTH 7 0
BBX 7 8 0 0
BITMAP
7D10
5510
7D40
0100
0400
14F4
1148
41F4
ENDCHAR
STARTCHAR ampersand
ENCODING 38
SWIDTH 773 0
DWIDTH 7 0
BBX 7 9 0 -1
BITMAP
1E00
2200
2500
2860
6820
9910
A250
2ED4
0070
ENDCHAR
STARTCHAR quotesingle
ENCODING 39
SWIDTH 174 0
DWIDTH 2 0
BBX 1 3 0 4
BITMAP
40
40
40
ENDCHAR
STARTCHAR parenleft
ENCODING 40
SWIDTH 431 0
DWIDTH 4 0
BBX 4 13 0 -4
BITMAP
10
10
50
90
80
C0
C0
90
60
30
14
08
01
ENDCHAR
STARTCHAR parenright
ENCODING 41
SWIDTH 443 0
DWIDTH 4 0
BBX 4 9 0 -2
BITMAP
10
18
09
06
03
06
05
08
50
ENDCHAR
STARTCHAR asterisk
ENCODING 42
SWIDTH 490 0
DWIDTH 4 0
BBX 4 4 0 4
BITMAP
09
69
19
01
ENDCHAR
STARTCHAR plus
ENCODING 43
SWIDTH 440 0
DWIDTH 4 0
BBX 4 5 0 1
BITMAP
04
04
BD
04
04
ENDCHAR
STARTCHAR comma
ENCODING 44
SWIDTH 251 0
DWIDTH 2 0
BBX 2 3 0 -2
BITMAP
60
20
10
ENDCHAR
STARTCHAR hyphen
ENCODING 45
SWIDTH 436 0
DWIDTH 4 0
BBX 4 1 0 2
BITMAP
7D
ENDCHAR
STARTCHAR period
ENCODING 46
SWIDTH 238 0
DWIDTH 2 0
BBX 2 1 0 0
BITMAP
60
ENDCHAR
STARTCHAR slash
ENCODING 47
SWIDTH 690 0
DWIDTH 6 0
BBX 6 8 0 0
BITMAP
0010
0040
0040
0100
0400
1400
1000
4000
ENDCHAR
STARTCHAR zero
ENCODING 48
SWIDTH 723 0
DWIDTH 7 0
BBX 7 6 0 1
BITMAP
2F90
A070
C024
9024
6470
1F90
ENDCHAR
STARTCHAR one
ENCODING 49
SWIDTH 505 0
DWIDTH 5 0
BBX 5 8 0 -1
BITMAP
0400
7800
A800
0C00
0D00
0A00
1F40
6400
ENDCHAR
STARTCHAR two
ENCODING 50
SWIDTH 534 0
DWIDTH 5 0
BBX 5 8 0 -1
BITMAP
6D00
4700
4300
0600
0800
5000
6440
0700
ENDCHAR
STARTCHAR three
ENCODING 51
SWIDTH 511 0
DWIDTH 5 0
BBX 5 7 0 -1
BITMAP
BE00
4000
0800
0700
4280
8240
6E00
ENDCHAR
STARTCHAR four
ENCODING 52
SWIDTH 712 0
DWIDTH 6 0
BBX 7 9 0 -2
BITMAP
0200
0600
1300
4200
6640
02E0
01C0
02E0
0014
ENDCHAR
STARTCHAR five
ENCODING 53
SWIDTH 757 0
DWIDTH 7 0
BBX 7 8 0 -1
BITMAP
0294
0474
0800
0180
4090
4090
91C0
6E40
ENDCHAR
STARTCHAR six
ENCODING 54
SWIDTH 598 0
DWIDTH 5 0
BBX 6 7 0 0
BITMAP
1F40
6040
AF40
E0C0
9090
6080
2F40
ENDCHAR
STARTCHAR seven
ENCODING 55
SWIDTH 507 0
DWIDTH 5 0
BBX 4 7 0 0
BITMAP
FF
45
00
04
08
24
34
ENDCHAR
STARTCHAR eight
ENCODING 56
SWIDTH 476 0
DWIDTH 4 0
BBX 4 7 0 0
BITMAP
7D
A1
78
2A
82
82
7D
ENDCHAR
STARTCHAR nine
ENCODING 57
SWIDTH 601 0
DWIDTH 5 0
BBX 6 7 0 0
BITMAP
2E40
92C0
C0D0
A1D0
2FC0
0180
7E00
ENDCHAR
STARTCHAR colon
ENCODING 58
SWIDTH 246 0
DWIDTH 2 0
BBX 2 4 0 0
BITMAP
60
00
00
60
ENDCHAR
STARTCHAR semicolon
ENCODING 59
SWIDTH 266 0
DWIDTH 2 0
BBX 2 6 0 -2
BITMAP
60
00
00
60
20
40
ENDCHAR
STARTCHAR less
ENCODING 60
SWIDTH 522 0
DWIDTH 5 0
BBX 4 4 0 1
BITMAP
01
14
60
05
ENDCHAR
STARTCHAR equal
ENCODING 61
SWIDTH 655 0
DWIDTH 6 0
BBX 6 2 0 2
BITMAP
06D0
BF80
ENDCHAR
STARTCHAR greater
ENCODING 62
SWIDTH 533 0
DWIDTH 5 0
BBX 3 5 1 0
BITMAP
40
14
08
10
40
ENDCHAR
STARTCHAR question
ENCODING 63
SWIDTH 564 0
DWIDTH 5 0
BBX 5 9 0 -1
BITMAP
2E40
9280
9180
A240
0900
1000
3000
0000
2400
ENDCHAR
STARTCHAR at
ENCODING 64
SWIDTH 898 0
DWIDTH 8 0
BBX 8 9 0 -3
BITMAP
07F4
1818
17B1
4C61
5821
5C61
5BAC
2490
0B80
ENDCHAR
STARTCHAR A
ENCODING 65
SWIDTH 784 0
DWIDTH 7 0
BBX 7 8 0 0
BITMAP
1F00
0640
0580
04C0
1FD0
20A0
F074
10FC
ENDCHAR
STARTCHAR B
ENCODING 66
SWIDTH 685 0
DWIDTH 6 0
BBX 6 9 0 -2
BITMAP
6B80
24D0
2540
1FD0
1470
1830
2860
2F90
4000
ENDCHAR
STARTCHAR C
ENCODING 67
SWIDTH 742 0
DWIDTH 7 0
BBX 7 8 0 -1
BITMAP
0010
1FF0
7470
A014
D000
A004
7414
1FD0
ENDCHAR
STARTCHAR D
ENCODING 68
SWIDTH 726 0
DWIDTH 7 0
BBX 7 8 0 -2
BITMAP
AFD0
3470
2034
2434
2470
3F80
6400
4000
ENDCHAR
STARTCHAR E
ENCODING 69
SWIDTH 557 0
DWIDTH 5 0
BBX 5 9 0 -2
BITMAP
5640
7040
3000
3000
2D00
2500
2440
BFC0
0140
ENDCHAR
STARTCHAR F
ENCODING 70
SWIDTH 533 0
DWIDTH 5 0
BBX 5 8 0 0
BITMAP
16C0
B480
2440
2500
1D00
1500
1800
AD00
ENDCHAR
STARTCHAR G
ENCODING 71
SWIDTH 750 0
DWIDTH 7 0
BBX 7 7 0 0
BITMAP
0004
1F44
7470
9024
D2F4
A070
2F90
ENDCHAR
STARTCHAR H
ENCODING 72
SWIDTH 743 0
DWIDTH 7 0
BBX 7 10 0 -1
BITMAP
4000
3E14
25F4
2470
2460
2FE0
2420
2420
35F4
B800
ENDCHAR
STARTCHAR I
ENCODING 73
SWIDTH 438 0
DWIDTH 4 0
BBX 6 10 -1 -2
BITMAP
3FD0
0E00
0900
0900
0800
0800
0800
0800
2F00
5000
ENDCHAR
STARTCHAR J
ENCODING 74
SWIDTH 628 0
DWIDTH 6 0
BBX 6 11 0 -2
BITMAP
0060
0FD0
0280
0280
0180
0140
0140
0240
B300
8A00
B800
ENDCHAR
STARTCHAR K
ENCODING 75
SWIDTH 866 0
DWIDTH 8 0
BBX 8 9 0 -1
BITMAP
0440
F8F4
3080
3600
2B41
26D1
247E
7C00
0400
ENDCHAR
STARTCHAR L
ENCODING 76
SWIDTH 660 0
DWIDTH 6 0
BBX 6 7 0 0
BITMAP
4000
BF00
1C00
1800
1800
1850
7FE0
ENDCHAR
STARTCHAR M
ENCODING 77
SWIDTH 1089 0
DWIDTH 10 0
BBX 10 8 0 -1
BITMAP
0002D0
1E0300
0A8700
04D240
046180
0001C0
D002F0
A00100
ENDCHAR
STARTCHAR N
ENCODING 78
SWIDTH 799 0
DWIDTH 7 0
BBX 7 9 0 -3
BITMAP
F87C
2E10
1B90
12E0
10B0
1020
2000
F800
0400
ENDCHAR
STARTCHAR O
ENCODING 79
SWIDTH 747 0
DWIDTH 7 0
BBX 7 7 0 0
BITMAP
1F90
60B0
9034
D028
9028
7470
1F90
ENDCHAR
STARTCHAR P
ENCODING 80
SWIDTH 623 0
DWIDTH 6 0
BBX 6 8 0 -1
BITMAP
FFD0
28A0
1890
1F80
1800
1800
1800
7D00
ENDCHAR
STARTCHAR Q
ENCODING 81
SWIDTH 804 0
DWIDTH 7 0
BBX 11 11 0 -4
BITMAP
1BD000
607800
901C00
C00C00
91EC00
752800
1FE800
001C00
000D04
000B10
0002D0
ENDCHAR
STARTCHAR R
ENCODING 82
SWIDTH 869 0
DWIDTH 8 0
BBX 8 6 0 0
BITMAP
FF80
2890
25C0
1F40
15D1
BD7E
ENDCHAR
STARTCHAR S
ENCODING 83
SWIDTH 517 0
DWIDTH 5 0
BBX 5 8 0 -1
BITMAP
1D40
3540
2400
0900
4200
4180
9280
5E00
ENDCHAR
STARTCHAR T
ENCODING 84
SWIDTH 659 0
DWIDTH 6 0
BBX 6 9 0 -1
BITMAP
BFF0
4210
4300
0300
0300
0300
0740
0BE0
1400
ENDCHAR
STARTCHAR U
ENCODING 85
SWIDTH 690 0
DWIDTH 6 0
BBX 7 6 0 0
BITMAP
1600
FAF8
3420
3410
2850
0B80
ENDCHAR
STARTCHAR V
ENCODING 86
SWIDTH 798 0
DWIDTH 7 0
BBX 8 7 0 0
BITMAP
0100
FD06
1C7C
0A14
0390
01D0
0080
ENDCHAR
STARTCHAR W
ENCODING 87
SWIDTH 1120 0
DWIDTH 10 0
BBX 11 8 0 -1
BITMAP
000040
0000BC
640020
245040
187040
0E2900
091D00
000800
ENDCHAR
STARTCHAR X
ENCODING 88
SWIDTH 868 0
DWIDTH 8 0
BBX 8 9 0 -1
BITMAP
0100
FF00
1A0D
0350
01D0
0160
0824
BCB9
0400
ENDCHAR
STARTCHAR Y
ENCODING 89
SWIDTH 796 0
DWIDTH 7 0
BBX 8 10 0 -2
BITMAP
0400
F81F
2814
0B50
0280
0180
0180
0280
0BD0
0040
ENDCHAR
STARTCHAR Z
ENCODING 90
SWIDTH 627 0
DWIDTH 6 0
BBX 6 9 0 -1
BITMAP
4000
7F00
4600
0900
0C00
1810
2450
3BE0
2400
ENDCHAR
STARTCHAR bracketleft
ENCODING 91
SWIDTH 344 0
DWIDTH 3 0
BBX 3 9 0 -2
BITMAP
74
60
90
90
90
90
D0
D0
B8
ENDCHAR
STARTCHAR backslash
ENCODING 92
SWIDTH 347 0
DWIDTH 3 0
BBX 3 9 0 -1
BITMAP
40
40
10
10
10
10
04
04
04
ENDCHAR
STARTCHAR bracketright
ENCODING 93
SWIDTH 334 0
DWIDTH 3 0
BBX 3 8 0 -2
BITMAP
74
28
18
18
18
1C
28
40
ENDCHAR
STARTCHAR asciicircum
ENCODING 94
SWIDTH 658 0
DWIDTH 6 0
BBX 6 2 0 5
BITMAP
1A40
66D0
ENDCHAR
STARTCHAR underscore
ENCODING 95
SWIDTH 678 0
DWIDTH 6 0
BBX 5 2 1 -4
BITMAP
6B80
4000
ENDCHAR
STARTCHAR grave
ENCODING 96
SWIDTH 278 0
DWIDTH 3 0
BBX 2 2 0 7
BITMAP
50
20
ENDCHAR
STARTCHAR a
ENCODING 97
SWIDTH 527 0
DWIDTH 5 0
BBX 5 7 0 -1
BITMAP
7C00
5900
0600
7F00
9700
BB40
0180
ENDCHAR
STARTCHAR b
ENCODING 98
SWIDTH 582 0
DWIDTH 5 0
BBX 6 11 -1 -1
BITMAP
1400
B400
1400
1400
1800
1800
1AD0
0870
0C70
1FD0
2400
ENDCHAR
STARTCHAR c
ENCODING 99
SWIDTH 437 0
DWIDTH 4 0
BBX 4 5 0 1
BITMAP
2D
99
81
91
7D
ENDCHAR
STARTCHAR d
ENCODING 100
SWIDTH 523 0
DWIDTH 5 0
BBX 5 9 0 0
BITMAP
0B00
0300
0300
0300
0300
7F00
9200
9300
7F80
ENDCHAR
STARTCHAR e
ENCODING 101
SWIDTH 434 0
DWIDTH 4 0
BBX 4 5 0 0
BITMAP
2D
96
BD
91
6D
ENDCHAR
STARTCHAR f
ENCODING 102
SWIDTH 299 0
DWIDTH 3 0
BBX 6 12 -1 -2
BITMAP
0380
0990
09C0
0800
7E00
0800
0800
0C00
0C00
0C00
2F00
1000
ENDCHAR
STARTCHAR g
ENCODING 103
SWIDTH 567 0
DWIDTH 5 0
BBX 6 8 0 -3
BITMAP
02C0
7E90
A300
7E00
3E40
9180
D180
BE00
ENDCHAR
STARTCHAR h
ENCODING 104
SWIDTH 566 0
DWIDTH 5 0
BBX 6 9 -1 0
BITMAP
3C00
0800
0800
0800
0800
0AC0
1C90
1890
7DF0
ENDCHAR
STARTCHAR i
ENCODING 105
SWIDTH 301 0
DWIDTH 3 0
BBX 3 6 0 1
BITMAP
20
F0
30
20
60
B8
ENDCHAR
STARTCHAR j
ENCODING 106
SWIDTH 367 0
DWIDTH 3 0
BBX 4 10 -1 -5
BITMAP
09
00
1E
07
03
02
02
A2
86
B8
ENDCHAR
STARTCHAR k
ENCODING 107
SWIDTH 567 0
DWIDTH 5 0
BBX 6 10 -1 -1
BITMAP
B800
1800
0800
0900
09D0
0940
0E00
0E50
0DE0
2B40
ENDCHAR
STARTCHAR l
ENCODING 108
SWIDTH 354 0
DWIDTH 3 0
BBX 4 8 -1 0
BITMAP
18
6C
0C
0C
08
09
09
1F
ENDCHAR
STARTCHAR m
ENCODING 109
SWIDTH 708 0
DWIDTH 6 0
BBX 6 5 0 0
BITMAP
1000
7EE0
2B60
B460
0010
ENDCHAR
STARTCHAR n
ENCODING 110
SWIDTH 584 0
DWIDTH 5 0
BBX 5 7 0 -1
BITMAP
1000
6740
2580
2080
2180
7B80
0040
ENDCHAR
STARTCHAR o
ENCODING 111
SWIDTH 503 0
DWIDTH 5 0
BBX 5 4 0 1
BITMAP
6E00
9240
A240
6E00
ENDCHAR
STARTCHAR p
ENCODING 112
SWIDTH 509 0
DWIDTH 5 0
BBX 5 9 0 -4
BITMAP
B000
3B00
2240
2240
3E00
3000
3000
3000
B800
ENDCHAR
STARTCHAR q
ENCODING 113
SWIDTH 505 0
DWIDTH 5 0
BBX 5 9 0 -5
BITMAP
7E00
9600
7E00
0600
0600
0600
0600
1F40
0140
ENDCHAR
STARTCHAR r
ENCODING 114
SWIDTH 414 0
DWIDTH 4 0
BBX 4 6 0 0
BITMAP
AF
36
30
30
34
BC
ENDCHAR
STARTCHAR s
ENCODING 115
SWIDTH 482 0
DWIDTH 4 0
BBX 5 7 0 -1
BITMAP
1E00
2100
1400
0500
5200
5340
1E00
ENDCHAR
STARTCHAR t
ENCODING 116
SWIDTH 434 0
DWIDTH 4 0
BBX 4 7 0 0
BITMAP
04
14
BD
30
60
62
2D
ENDCHAR
STARTCHAR u
ENCODING 117
SWIDTH 744 0
DWIDTH 7 0
BBX 7 5 0 0
BITMAP
B2D0
2090
2490
18B8
0F00
ENDCHAR
STARTCHAR v
ENCODING 118
SWIDTH 600 0
DWIDTH 5 0
BBX 5 6 1 0
BITMAP
9000
D000
6B40
3100
2800
0400
ENDCHAR
STARTCHAR w
ENCODING 119
SWIDTH 745 0
DWIDTH 7 0
BBX 7 5 0 0
BITMAP
1028
F150
3690
2C80
0400
ENDCHAR
STARTCHAR x
ENCODING 120
SWIDTH 548 0
DWIDTH 5 0
BBX 5 5 0 1
BITMAP
1800
FAC0
2D00
1D00
6F80
ENDCHAR
STARTCHAR y
ENCODING 121
SWIDTH 659 0
DWIDTH 6 0
BBX 6 9 0 -4
BITMAP
1800
B2E0
7090
34D0
1E80
0080
0080
2A40
2D00
ENDCHAR
STARTCHAR z
ENCODING 122
SWIDTH 460 0
DWIDTH 4 0
BBX 4 4 0 0
BITMAP
BD
44
11
7F
ENDCHAR
STARTCHAR braceleft
ENCODING 123
SWIDTH 460 0
DWIDTH 4 0
BBX 4 12 0 -3
BITMAP
0E
18
18
18
18
64
10
14
18
18
19
0E
ENDCHAR
STARTCHAR bar
ENCODING 124
SWIDTH 368 0
DWIDTH 3 0
BBX 1 10 1 -2
BITMAP
40
40
40
40
40
40
40
40
40
40
ENDCHAR
STARTCHAR braceright
ENCODING 125
SWIDTH 476 0
DWIDTH 4 0
BBX 4 10 0 -2
BITMAP
B8
1C
0C
09
02
06
03
02
02
1D
ENDCHAR
STARTCHAR asciitilde
ENCODING 126
SWIDTH 733 0
DWIDTH 7 0
BBX 6 1 0 2
BITMAP
7FE0
ENDCHAR
STARTCHAR nonbreakingspace
ENCODING 160
SWIDTH 270 0
DWIDTH 2 0
BBX 1 1 0 0
BITMAP
00
ENDCHAR
STARTCHAR exclamdown
ENCODING 161
SWIDTH 247 0
DWIDTH 2 0
BBX 2 10 0 -1
BITMAP
50
00
00
10
10
60
60
60
60
60
ENDCHAR
STARTCHAR cent
ENCODING 162
SWIDTH 799 0
DWIDTH 7 0
BBX 5 6 1 -1
BITMAP
1F40
7540
6400
6540
2E00
0100
ENDCHAR
STARTCHAR sterling
ENCODING 163
SWIDTH 799 0
DWIDTH 7 0
BBX 5 8 1 -1
BITMAP
1F00
3240
3340
7400
1800
0C00
7D00
7BC0
ENDCHAR
STARTCHAR currency
ENCODING 164
SWIDTH 732 0
DWIDTH 7 0
BBX 6 6 0 1
BITMAP
0040
2F80
2040
5080
2F80
2010
ENDCHAR
STARTCHAR yen
ENCODING 165
SWIDTH 799 0
DWIDTH 7 0
BBX 7 10 0 -2
BITMAP
0100
BC04
1DB4
0740
0280
0FF8
06E0
0280
0BE0
0500
ENDCHAR
STARTCHAR brokenbar
ENCODING 166
SWIDTH 341 0
DWIDTH 3 0
BBX 1 10 1 -2
BITMAP
40
40
40
40
00
40
40
40
40
40
ENDCHAR
STARTCHAR section
ENCODING 167
SWIDTH 546 0
DWIDTH 5 0
BBX 5 11 0 -3
BITMAP
1E00
2240
3000
2D00
5700
6140
2900
0600
0140
0140
1E00
ENDCHAR
STARTCHAR dieresis
ENCODING 168
SWIDTH 393 0
DWIDTH 4 0
BBX 2 1 1 6
BITMAP
A0
ENDCHAR
STARTCHAR copyright
ENCODING 169
SWIDTH 1023 0
DWIDTH 9 0
BBX 9 8 0 -1
BITMAP
07F800
241600
52D180
491040
4A1040
52C140
240600
0BF800
ENDCHAR
STARTCHAR ordfeminine
ENCODING 170
SWIDTH 558 0
DWIDTH 5 0
BBX 5 5 0 2
BITMAP
7800
5900
2D00
5940
7B40
ENDCHAR
STARTCHAR guillemotleft
ENCODING 171
SWIDTH 608 0
DWIDTH 5 0
BBX 5 7 0 -2
BITMAP
0140
0840
2640
7680
1880
0540
0100
ENDCHAR
STARTCHAR logicalnot
ENCODING 172
SWIDTH 616 0
DWIDTH 6 0
BBX 5 2 0 3
BITMAP
7EC0
0040
ENDCHAR
STARTCHAR uni00AD
ENCODING 173
SWIDTH 436 0
DWIDTH 4 0
BBX 4 1 0 2
BITMAP
7D
ENDCHAR
STARTCHAR registered
ENCODING 174
SWIDTH 1048 0
DWIDTH 9 0
BBX 9 8 0 -2
BITMAP
06F900
2FF640
523040
42E040
43A040
5FEC40
280640
07F800
ENDCHAR
STARTCHAR macron
ENCODING 175
SWIDTH 382 0
DWIDTH 3 0
BBX 3 1 0 7
BITMAP
7C
ENDCHAR
STARTCHAR degree
ENCODING 176
SWIDTH 346 0
DWIDTH 3 0
BBX 3 2 0 7
BITMAP
74
74
ENDCHAR
STARTCHAR plusminus
ENCODING 177
SWIDTH 580 0
DWIDTH 5 0
BBX 5 4 0 1
BITMAP
0400
7E40
0400
7A00
ENDCHAR
STARTCHAR twosuperior
ENCODING 178
SWIDTH 365 0
DWIDTH 3 0
BBX 3 5 0 3
BITMAP
28
0C
08
50
24
ENDCHAR
STARTCHAR threesuperior
ENCODING 179
SWIDTH 371 0
DWIDTH 3 0
BBX 3 4 0 4
BITMAP
B0
58
48
78
ENDCHAR
STARTCHAR acute
ENCODING 180
SWIDTH 234 0
DWIDTH 2 0
BBX 2 2 0 7
BITMAP
10
40
ENDCHAR
STARTCHAR mu
ENCODING 181
SWIDTH 634 0
DWIDTH 6 0
BBX 6 7 0 -3
BITMAP
9200
9240
A250
AEE0
9000
5000
6000
ENDCHAR
STARTCHAR paragraph
ENCODING 182
SWIDTH 707 0
DWIDTH 6 0
BBX 7 11 0 -3
BITMAP
0050
6FC0
FC80
F880
2880
0880
0880
08C0
08D0
1CF4
6800
ENDCHAR
STARTCHAR periodcentered
ENCODING 183
SWIDTH 238 0
DWIDTH 2 0
BBX 2 1 0 3
BITMAP
60
ENDCHAR
STARTCHAR cedilla
ENCODING 184
SWIDTH 332 0
DWIDTH 3 0
BBX 3 3 0 -2
BITMAP
10
14
74
ENDCHAR
STARTCHAR onesuperior
ENCODING 185
SWIDTH 336 0
DWIDTH 3 0
BBX 3 4 0 4
BITMAP
14
10
64
68
ENDCHAR
STARTCHAR ordmasculine
ENCODING 186
SWIDTH 503 0
DWIDTH 5 0
BBX 5 4 0 3
BITMAP
3E00
4200
9240
2E00
ENDCHAR
STARTCHAR guillemotright
ENCODING 187
SWIDTH 778 0
DWIDTH 7 0
BBX 7 7 0 -2
BITMAP
4100
2490
0A74
0990
1540
1200
0100
ENDCHAR
STARTCHAR onequarter
ENCODING 188
SWIDTH 876 0
DWIDTH 8 0
BBX 8 8 0 0
BITMAP
1404
1010
6440
6950
0120
0424
10BD
103E
ENDCHAR
STARTCHAR onehalf
ENCODING 189
SWIDTH 762 0
DWIDTH 7 0
BBX 7 8 0 0
BITMAP
1404
1010
6440
6970
0114
0424
1050
1060
ENDCHAR
STARTCHAR threequarters
ENCODING 190
SWIDTH 922 0
DWIDTH 8 0
BBX 8 8 0 0
BITMAP
B004
5810
4810
7844
0114
0509
047E
102F
ENDCHAR
STARTCHAR questiondown
ENCODING 191
SWIDTH 571 0
DWIDTH 5 0
BBX 5 8 0 -1
BITMAP
0900
0000
0400
0400
2780
A1C0
B080
6F40
ENDCHAR
STARTCHAR Agrave
ENCODING 192
SWIDTH 784 0
DWIDTH 7 0
BBX 7 10 0 0
BITMAP
1400
0800
1F00
0640
0580
04C0
1FD0
20A0
F074
10FC
ENDCHAR
STARTCHAR Aacute
ENCODING 193
SWIDTH 784 0
DWIDTH 7 0
BBX 7 10 0 0
BITMAP
0200
0100
1F00
0640
0580
04C0
1FD0
20A0
F074
10FC
ENDCHAR
STARTCHAR Acircumflex
ENCODING 194
SWIDTH 784 0
DWIDTH 7 0
BBX 7 10 0 0
BITMAP
0240
0480
1F00
0640
0580
04C0
1FD0
20A0
F074
10FC
ENDCHAR
STARTCHAR Atilde
ENCODING 195
SWIDTH 784 0
DWIDTH 7 0
BBX 7 8 0 0
BITMAP
2F80
0640
0580
04C0
1FD0
20A0
F074
10FC
ENDCHAR
STARTCHAR Adieresis
ENCODING 196
SWIDTH 784 0
DWIDTH 7 0
BBX 7 9 0 0
BITMAP
0980
1F00
0640
0580
04C0
1FD0
20A0
F074
10FC
ENDCHAR
STARTCHAR Aring
ENCODING 197
SWIDTH 784 0
DWIDTH 7 0
BBX 7 9 0 0
BITMAP
0740
1F40
0640
0580
04C0
1FD0
20A0
F074
10FC
ENDCHAR
STARTCHAR AE
ENCODING 198
SWIDTH 1172 0
DWIDTH 11 0
BBX 11 9 0 -1
BITMAP
000680
02F940
006400
001840
001F44
02FC54
051C24
181E40
FD1000
ENDCHAR
STARTCHAR Ccedilla
ENCODING 199
SWIDTH 742 0
DWIDTH 7 0
BBX 7 11 0 -4
BITMAP
0010
1FF0
7470
A014
D000
A004
7414
1FD0
0100
0080
0380
ENDCHAR
STARTCHAR Egrave
ENCODING 200
SWIDTH 557 0
DWIDTH 5 0
BBX 5 12 0 -2
BITMAP
2000
1400
0000
5640
7040
3000
3000
2D00
2500
2440
BFC0
0140
ENDCHAR
STARTCHAR Eacute
ENCODING 201
SWIDTH 557 0
DWIDTH 5 0
BBX 5 12 0 -2
BITMAP
0100
0400
0000
5640
7040
3000
3000
2D00
2500
2440
BFC0
0140
ENDCHAR
STARTCHAR Ecircumflex
ENCODING 202
SWIDTH 557 0
DWIDTH 5 0
BBX 5 12 0 -2
BITMAP
0900
1240
0000
5640
7040
3000
3000
2D00
2500
2440
BFC0
0140
ENDCHAR
STARTCHAR Edieresis
ENCODING 203
SWIDTH 557 0
DWIDTH 5 0
BBX 5 11 0 -2
BITMAP
2600
0000
5640
7040
3000
3000
2D00
2500
2440
BFC0
0140
ENDCHAR
STARTCHAR Igrave
ENCODING 204
SWIDTH 438 0
DWIDTH 4 0
BBX 6 12 -1 -2
BITMAP
0800
0500
3FD0
0E00
0900
0900
0800
0800
0800
0800
2F00
5000
ENDCHAR
STARTCHAR Iacute
ENCODING 205
SWIDTH 438 0
DWIDTH 4 0
BBX 6 12 -1 -2
BITMAP
0140
0100
3FD0
0E00
0900
0900
0800
0800
0800
0800
2F00
5000
ENDCHAR
STARTCHAR Icircumflex
ENCODING 206
SWIDTH 438 0
DWIDTH 4 0
BBX 6 12 -1 -2
BITMAP
0640
0580
3FD0
0E00
0900
0900
0800
0800
0800
0800
2F00
5000
ENDCHAR
STARTCHAR Idieresis
ENCODING 207
SWIDTH 438 0
DWIDTH 4 0
BBX 6 11 -1 -2
BITMAP
0940
3FD0
0E00
0900
0900
0800
0800
0800
0800
2F00
5000
ENDCHAR
STARTCHAR Eth
ENCODING 208
SWIDTH 730 0
DWIDTH 7 0
BBX 7 7 0 -2
BITMAP
6FD0
24B4
2438
BC38
24B0
3F80
5000
ENDCHAR
STARTCHAR Ntilde
ENCODING 209
SWIDTH 799 0
DWIDTH 7 0
BBX 7 11 0 -3
BITMAP
03E0
0000
F87C
2E10
1B90
12E0
10B0
1020
2000
F800
0400
ENDCHAR
STARTCHAR Ograve
ENCODING 210
SWIDTH 747 0
DWIDTH 7 0
BBX 7 10 0 0
BITMAP
1400
0400
0000
1F90
60B0
9034
D028
9028
7470
1F90
ENDCHAR
STARTCHAR Oacute
ENCODING 211
SWIDTH 747 0
DWIDTH 7 0
BBX 7 10 0 0
BITMAP
0200
0100
0000
1F90
60B0
9034
D028
9028
7470
1F90
ENDCHAR
STARTCHAR Ocircumflex
ENCODING 212
SWIDTH 747 0
DWIDTH 7 0
BBX 7 9 0 0
BITMAP
0600
0580
1F90
60B0
9034
D028
9028
7470
1F90
ENDCHAR
STARTCHAR Otilde
ENCODING 213
SWIDTH 747 0
DWIDTH 7 0
BBX 7 8 0 0
BITMAP
0F80
1F90
60B0
9034
D028
9028
7470
1F90
ENDCHAR
STARTCHAR Odieresis
ENCODING 214
SWIDTH 747 0
DWIDTH 7 0
BBX 7 9 0 0
BITMAP
0D40
0000
1F90
60B0
9034
D028
9028
7470
1F90
ENDCHAR
STARTCHAR multiply
ENCODING 215
SWIDTH 541 0
DWIDTH 5 0
BBX 4 5 0 0
BITMAP
01
14
09
10
40
ENDCHAR
STARTCHAR Oslash
ENCODING 216
SWIDTH 747 0
DWIDTH 7 0
BBX 7 9 0 -1
BITMAP
0004
1F90
60B0
9078
D128
9428
7470
2F90
4000
ENDCHAR
STARTCHAR Ugrave
ENCODING 217
SWIDTH 690 0
DWIDTH 6 0
BBX 7 10 0 0
BITMAP
0500
0200
0000
0000
1600
FAF8
3420
3410
2850
0B80
ENDCHAR
STARTCHAR Uacute
ENCODING 218
SWIDTH 690 0
DWIDTH 6 0
BBX 7 9 0 0
BITMAP
0020
0040
0000
1600
FAF8
3420
3410
2850
0B80
ENDCHAR
STARTCHAR Ucircumflex
ENCODING 219
SWIDTH 690 0
DWIDTH 6 0
BBX 7 9 0 0
BITMAP
0240
0490
0000
1600
FAF8
3420
3410
2850
0B80
ENDCHAR
STARTCHAR Udieresis
ENCODING 220
SWIDTH 690 0
DWIDTH 6 0
BBX 7 9 0 0
BITMAP
0680
0000
0000
1600
FAF8
3420
3410
2850
0B80
ENDCHAR
STARTCHAR Yacute
ENCODING 221
SWIDTH 796 0
DWIDTH 7 0
BBX 8 12 0 -2
BITMAP
0010
0040
0400
F81F
2814
0B50
0280
0180
0180
0280
0BD0
0040
ENDCHAR
STARTCHAR Thorn
ENCODING 222
SWIDTH 479 0
DWIDTH 4 0
BBX 5 9 0 -1
BITMAP
B800
3000
3E00
2240
3F00
2000
2000
7000
B800
ENDCHAR
STARTCHAR germandbls
ENCODING 223
SWIDTH 591 0
DWIDTH 5 0
BBX 5 10 0 -1
BITMAP
7800
8800
8800
8000
9E40
96C0
50C0
6080
7B80
4000
ENDCHAR
STARTCHAR agrave
ENCODING 224
SWIDTH 527 0
DWIDTH 5 0
BBX 5 9 0 -1
BITMAP
8000
1000
7C00
5900
0600
7F00
9700
BB40
0180
ENDCHAR
STARTCHAR aacute
ENCODING 225
SWIDTH 527 0
DWIDTH 5 0
BBX 5 9 0 -1
BITMAP
0400
0400
7C00
5900
0600
7F00
9700
BB40
0180
ENDCHAR
STARTCHAR acircumflex
ENCODING 226
SWIDTH 527 0
DWIDTH 5 0
BBX 5 9 0 -1
BITMAP
1800
1600
7C00
5900
0600
7F00
9700
BB40
0180
ENDCHAR
STARTCHAR atilde
ENCODING 227
SWIDTH 527 0
DWIDTH 5 0
BBX 5 7 0 -1
BITMAP
7E00
5900
0600
7F00
9700
BB40
0180
ENDCHAR
STARTCHAR adieresis
ENCODING 228
SWIDTH 527 0
DWIDTH 5 0
BBX 5 8 0 -1
BITMAP
2800
7C00
5900
0600
7F00
9700
BB40
0180
ENDCHAR
STARTCHAR aring
ENCODING 229
SWIDTH 527 0
DWIDTH 5 0
BBX 5 8 0 -1
BITMAP
2C00
7D00
5900
0600
7F00
9700
BB40
0180
ENDCHAR
STARTCHAR ae
ENCODING 230
SWIDTH 700 0
DWIDTH 6 0
BBX 6 6 0 -1
BITMAP
01E0
7460
9FD0
7C10
8A10
B6E0
ENDCHAR
STARTCHAR ccedilla
ENCODING 231
SWIDTH 437 0
DWIDTH 4 0
BBX 4 8 0 -2
BITMAP
2D
99
81
91
7D
04
08
1C
ENDCHAR
STARTCHAR egrave
ENCODING 232
SWIDTH 434 0
DWIDTH 4 0
BBX 4 8 0 0
BITMAP
50
10
00
2D
96
BD
91
6D
ENDCHAR
STARTCHAR eacute
ENCODING 233
SWIDTH 434 0
DWIDTH 4 0
BBX 4 8 0 0
BITMAP
04
04
00
2D
96
BD
91
6D
ENDCHAR
STARTCHAR ecircumflex
ENCODING 234
SWIDTH 434 0
DWIDTH 4 0
BBX 4 8 0 0
BITMAP
18
16
00
2D
96
BD
91
6D
ENDCHAR
STARTCHAR edieresis
ENCODING 235
SWIDTH 434 0
DWIDTH 4 0
BBX 4 7 0 0
BITMAP
28
00
2D
96
BD
91
6D
ENDCHAR
STARTCHAR igrave
ENCODING 236
SWIDTH 301 0
DWIDTH 3 0
BBX 4 8 -1 1
BITMAP
60
10
00
3C
0C
08
18
2E
ENDCHAR
STARTCHAR iacute
ENCODING 237
SWIDTH 301 0
DWIDTH 3 0
BBX 3 7 0 1
BITMAP
10
10
F0
30
20
60
B8
ENDCHAR
STARTCHAR icircumflex
ENCODING 238
SWIDTH 301 0
DWIDTH 3 0
BBX 3 7 0 1
BITMAP
24
48
F0
30
20
60
B8
ENDCHAR
STARTCHAR idieresis
ENCODING 239
SWIDTH 301 0
DWIDTH 3 0
BBX 3 6 0 1
BITMAP
64
F0
30
20
60
B8
ENDCHAR
STARTCHAR eth
ENCODING 240
SWIDTH 476 0
DWIDTH 4 0
BBX 5 7 -1 -1
BITMAP
7E00
0640
0080
0BC0
1480
1880
0B40
ENDCHAR
STARTCHAR ntilde
ENCODING 241
SWIDTH 584 0
DWIDTH 5 0
BBX 5 7 0 -1
BITMAP
1F80
6740
2580
2080
2180
7B80
0040
ENDCHAR
STARTCHAR ograve
ENCODING 242
SWIDTH 400 0
DWIDTH 4 0
BBX 6 7 0 2
BITMAP
0030
9020
2010
0080
6A40
C900
7D00
ENDCHAR
STARTCHAR oacute
ENCODING 243
SWIDTH 400 0
DWIDTH 4 0
BBX 6 7 0 2
BITMAP
0030
0420
0410
0080
6A40
C900
7D00
ENDCHAR
STARTCHAR ocircumflex
ENCODING 244
SWIDTH 400 0
DWIDTH 4 0
BBX 6 7 0 2
BITMAP
0030
1820
0610
0080
6A40
C900
7D00
ENDCHAR
STARTCHAR otilde
ENCODING 245
SWIDTH 400 0
DWIDTH 4 0
BBX 6 7 0 2
BITMAP
0030
0020
0010
3E80
6A40
C900
7D00
ENDCHAR
STARTCHAR odieresis
ENCODING 246
SWIDTH 400 0
DWIDTH 4 0
BBX 6 7 0 2
BITMAP
0030
0020
2810
0080
6A40
C900
7D00
ENDCHAR
STARTCHAR divide
ENCODING 247
SWIDTH 592 0
DWIDTH 5 0
BBX 5 4 0 1
BITMAP
0800
0000
7F80
0800
ENDCHAR
STARTCHAR oslash
ENCODING 248
SWIDTH 396 0
DWIDTH 4 0
BBX 4 5 0 1
BITMAP
04
7C
99
78
10
ENDCHAR
STARTCHAR ugrave
ENCODING 249
SWIDTH 744 0
DWIDTH 7 0
BBX 7 7 0 0
BITMAP
0800
0500
B2D0
2090
2490
18B8
0F00
ENDCHAR
STARTCHAR uacute
ENCODING 250
SWIDTH 744 0
DWIDTH 7 0
BBX 7 7 0 0
BITMAP
0200
0100
B2D0
2090
2490
18B8
0F00
ENDCHAR
STARTCHAR ucircumflex
ENCODING 251
SWIDTH 744 0
DWIDTH 7 0
BBX 7 7 0 0
BITMAP
0600
1180
B2D0
2090
2490
18B8
0F00
ENDCHAR
STARTCHAR udieresis
ENCODING 252
SWIDTH 744 0
DWIDTH 7 0
BBX 7 7 0 0
BITMAP
0A00
0000
B2D0
2090
2490
18B8
0F00
ENDCHAR
STARTCHAR yacute
ENCODING 253
SWIDTH 659 0
DWIDTH 6 0
BBX 6 11 0 -4
BITMAP
0140
0100
1800
B2E0
7090
34D0
1E80
0080
0080
2A40
2D00
ENDCHAR
STARTCHAR thorn
ENCODING 254
SWIDTH 514 0
DWIDTH 5 0
BBX 6 12 -1 -5
BITMAP
7800
2400
1F80
15D0
1490
18D0
1F80
1800
1800
1800
1C00
3F00
ENDCHAR
STARTCHAR ydieresis
ENCODING 255
SWIDTH 659 0
DWIDTH 6 0
BBX 6 11 0 -4
BITMAP
0640
0000
1800
B2E0
7090
34D0
1E80
0080
0080
2A40
2D00
ENDCHAR
STARTCHAR dotlessi
ENCODING 305
SWIDTH 301 0
DWIDTH 3 0
BBX 3 5 0 1
BITMAP
F0
30
20
60
B8
ENDCHAR
STARTCHAR OE
ENCODING 338
SWIDTH 1132 0
DWIDTH 10 0
BBX 10 10 0 -2
BITMAP
000040
1FAFC0
747800
902800
D01C40
A01E80
782C40
1B9C10
002FF0
001000
ENDCHAR
STARTCHAR oe
ENCODING 339
SWIDTH 798 0
DWIDTH 7 0
BBX 7 4 0 1
BITMAP
7DB4
87F4
9384
7DF8
ENDCHAR
STARTCHAR circumflex
ENCODING 710
SWIDTH 483 0
DWIDTH 4 0
BBX 3 2 1 6
BITMAP
60
58
ENDCHAR
STARTCHAR caron
ENCODING 711
SWIDTH 428 0
DWIDTH 4 0
BBX 3 2 0 6
BITMAP
54
10
ENDCHAR
STARTCHAR ring
ENCODING 730
SWIDTH 330 0
DWIDTH 3 0
BBX 3 2 0 7
BITMAP
74
74
ENDCHAR
STARTCHAR tilde
ENCODING 732
SWIDTH 433 0
DWIDTH 4 0
BBX 4 1 0 6
BITMAP
7D
ENDCHAR
STARTCHAR mu.dup1
ENCODING 956
SWIDTH 634 0
DWIDTH 6 0
BBX 6 7 0 -3
BITMAP
9200
9240
A250
AEE0
9000
5000
6000
ENDCHAR
STARTCHAR endash
ENCODING 8211
SWIDTH 436 0
DWIDTH 4 0
BBX 4 1 0 2
BITMAP
7D
ENDCHAR
STARTCHAR emdash
ENCODING 8212
SWIDTH 651 0
DWIDTH 6 0
BBX 5 2 1 1
BITMAP
6B40
4000
ENDCHAR
STARTCHAR quoteleft
ENCODING 8216
SWIDTH 287 0
DWIDTH 3 0
BBX 2 3 0 5
BITMAP
10
60
60
ENDCHAR
STARTCHAR quoteright
ENCODING 8217
SWIDTH 291 0
DWIDTH 3 0
BBX 2 3 0 4
BITMAP
70
20
10
ENDCHAR
STARTCHAR quotesinglbase
ENCODING 8218
SWIDTH 272 0
DWIDTH 2 0
BBX 2 3 0 -2
BITMAP
60
20
10
ENDCHAR
STARTCHAR quotedblleft
ENCODING 8220
SWIDTH 445 0
DWIDTH 4 0
BBX 4 3 0 4
BITMAP
14
69
69
ENDCHAR
STARTCHAR quotedblright
ENCODING 8221
SWIDTH 444 0
DWIDTH 4 0
BBX 4 3 0 5
BITMAP
69
25
14
ENDCHAR
STARTCHAR quotedblbase
ENCODING 8222
SWIDTH 482 0
DWIDTH 4 0
BBX 4 3 0 -2
BITMAP
76
36
15
ENDCHAR
STARTCHAR bullet
ENCODING 8226
SWIDTH 351 0
DWIDTH 3 0
BBX 3 2 0 3
BITMAP
74
74
ENDCHAR
STARTCHAR guilsinglleft
ENCODING 8249
SWIDTH 465 0
DWIDTH 4 0
BBX 3 6 1 -1
BITMAP
10
10
80
90
20
04
ENDCHAR
STARTCHAR guilsinglright
ENCODING 8250
SWIDTH 449 0
DWIDTH 4 0
BBX 4 5 0 -1
BITMAP
20
1D
24
20
40
ENDCHAR
STARTCHAR fraction
ENCODING 8260
SWIDTH 406 0
DWIDTH 4 0
BBX 6 8 -1 0
BITMAP
0010
0040
0100
0500
0400
1000
4000
4000
ENDCHAR
STARTCHAR foursuperior
ENCODING 8308
SWIDTH 473 0
DWIDTH 4 0
BBX 4 5 0 3
BITMAP
04
14
19
BE
2F
ENDCHAR
STARTCHAR Euro
ENCODING 8364
SWIDTH 799 0
DWIDTH 7 0
BBX 8 7 0 0
BITMAP
06E5
1D1C
2804
7900
7804
1D10
0BD0
ENDCHAR
STARTCHAR minus
ENCODING 8722
SWIDTH 436 0
DWIDTH 4 0
BBX 4 1 0 2
BITMAP
7D
ENDCHAR
STARTCHAR f_f
ENCODING 64256
SWIDTH 467 0
DWIDTH 4 0
BBX 5 14 0 -3
BITMAP
1E00
1600
12C0
19C0
1800
5800
7E00
5800
2900
2600
3780
3900
3800
BD00
ENDCHAR
STARTCHAR .notdef
ENCODING -1
SWIDTH 270 0
DWIDTH 2 0
BBX 2 6 0 0
BITMAP
B0
00
00
00
00
B0
ENDCHAR
STARTCHAR .null
ENCODING -1
SWIDTH 0 0
DWIDTH 0 0
BBX 1 1 0 0
BITMAP
00
ENDCHAR
STARTCHAR nonmarkingreturn
ENCODING -1
SWIDTH 270 0
DWIDTH 2 0
BBX 1 1 0 0
BITMAP
00
ENDCHAR
STARTCHAR dieresis.case
ENCODING -1
SWIDTH 393 0
DWIDTH 4 0
BBX 3 1 0 7
BITMAP
68
ENDCHAR
STARTCHAR o.cmp
ENCODING -1
SWIDTH 400 0
DWIDTH 4 0
BBX 6 7 0 2
BITMAP
0030
0020
0010
0080
6A40
C900
7D00
ENDCHAR
STARTCHAR n_n
ENCODING -1
SWIDTH 1024 0
DWIDTH 9 0
BBX 9 6 0 -1
BITMAP
E77400
359B80
209980
21BFC0
7BC000
004000
ENDCHAR
STARTCHAR a_a
ENCODING -1
SWIDTH 911 0
DWIDTH 8 0
BBX 9 6 0 -1
BITMAP
74B800
88C800
7DFD00
9B9900
B7E900
000740
ENDCHAR
STARTCHAR t_h
ENCODING -1
SWIDTH 854 0
DWIDTH 8 0
BBX 8 11 0 -2
BITMAP
0F40
0240
1640
FF80
2600
22B8
3269
2B29
0BD9
0FCC
003E
ENDCHAR
STARTCHAR s_s
ENCODING -1
SWIDTH 654 0
DWIDTH 6 0
BBX 6 7 0 -1
BITMAP
2FD0
2610
0540
4180
9A60
2DA0
0B90
ENDCHAR
STARTCHAR t_t
ENCODING -1
SWIDTH 569 0
DWIDTH 5 0
BBX 5 8 0 -1
BITMAP
0500
1B00
FD00
2800
6980
23C0
3640
1F40
ENDCHAR
STARTCHAR e_e
ENCODING -1
SWIDTH 782 0
DWIDTH 7 0
BBX 7 5 0 0
BITMAP
79E0
9B54
F710
A2A4
2FF8
ENDCHAR
STARTCHAR o_o
ENCODING -1
SWIDTH 751 0
DWIDTH 7 0
BBX 9 8 0 1
BITMAP
0000C0
000040
000040
000240
6FAD00
931400
93F400
7C0000
ENDCHAR
STARTCHAR l_l
ENCODING -1
SWIDTH 573 0
DWIDTH 5 0
BBX 6 9 -1 -1
BITMAP
1BC0
78C0
18C0
18C0
18C0
18D0
18F0
7800
0500
ENDCHAR
STARTCHAR z_z
ENCODING -1
SWIDTH 875 0
DWIDTH 8 0
BBX 8 6 0 -1
BITMAP
0BD0
7D40
0950
27F0
5003
FFFD
ENDCHAR
STARTCHAR j_j
ENCODING -1
SWIDTH 577 0
DWIDTH 5 0
BBX 6 12 -1 -6
BITMAP
0180
0940
02D0
1FA0
0760
0330
0220
0220
A220
8620
BF10
0380
ENDCHAR
STARTCHAR f_b
ENCODING -1
SWIDTH 731 0
DWIDTH 7 0
BBX 8 12 -1 -2
BITMAP
03C0
0890
0980
09D0
7990
1850
0850
0C7D
0C5A
0CBD
0F00
1000
ENDCHAR
STARTCHAR f_k
ENCODING -1
SWIDTH 708 0
DWIDTH 6 0
BBX 7 10 0 -1
BITMAP
0800
7F40
0A40
2800
6800
28D0
6A40
6A84
A9B0
2F80
ENDCHAR
STARTCHAR f_h
ENCODING -1
SWIDTH 873 0
DWIDTH 8 0
BBX 9 12 -1 -2
BITMAP
02C000
059000
05A000
09E000
1E6000
785000
086F00
0C6300
0C9380
0EE000
1F0000
100000
ENDCHAR
ENDFONT
